<svg id="Layer_1" data-name="Layer 1" xmlns="http://www.w3.org/2000/svg" viewBox="0 0 270.28 136.96"><defs><style>.cls-1{fill:#fff;stroke:#231f20;stroke-miterlimit:10;stroke-width:5px;}.cls-2{font-size:25px;}.cls-2,.cls-4{fill:#231f20;font-family:MyriadPro-Regular, Myriad Pro;}.cls-3{letter-spacing:-0.08em;}.cls-4{font-size:16px;}.cls-5{letter-spacing:0em;}.cls-6{letter-spacing:-0.05em;}.cls-7{letter-spacing:-0.08em;}.cls-8{letter-spacing:0em;}.cls-9{letter-spacing:0em;}.cls-10{letter-spacing:-0.07em;}.cls-11{letter-spacing:-0.03em;}.cls-12{letter-spacing:-0.05em;}</style></defs><title>cloud-info</title><path class="cls-1" d="M421.05,142.49c19.45-27-33-92-84-47L340.5,95c-42.61-30.33-92,8-81.5,36" transform="translate(-191.45 -77.54)"/><path class="cls-1" d="M418,139.09c47.54-1.7,54.39,69.52,18.53,72.91h-232c-28.5-26.5,4.33-86.13,55.33-84.21" transform="translate(-191.45 -77.54)"/><text class="cls-2" transform="translate(89.45 53.08)"><tspan class="cls-3">Y</tspan><tspan x="11.62" y="0">our Idea </tspan></text><text class="cls-4" transform="translate(58.3 79.19)"><tspan class="cls-5">D</tspan><tspan x="10.72" y="0">one </tspan><tspan class="cls-5" x="39.79" y="0">B</tspan><tspan x="48.53" y="0">y</tspan><tspan class="cls-6" x="56.06" y="0"> </tspan><tspan class="cls-7" x="58.72" y="0">Y</tspan><tspan class="cls-8" x="66.16" y="0">our </tspan><tspan class="cls-9" x="92.38" y="0">D</tspan><tspan x="103.1" y="0">eadline</tspan></text><text x="-191.45" y="-77.54"></text><text class="cls-2" transform="translate(37.94 112.83)"><tspan class="cls-10">T</tspan><tspan x="10.65" y="0">o </tspan><tspan class="cls-11" x="29.67" y="0">F</tspan><tspan x="41.2" y="0">it</tspan><tspan class="cls-12" x="55.32" y="0"> </tspan><tspan class="cls-3" x="59.47" y="0">Y</tspan><tspan x="71.1" y="0">our Budget</tspan></text></svg>